<svg width="150" height="150" xmlns="http://www.w3.org/2000/svg" style="vector-effect: non-scaling-stroke;" stroke="null">
 <!-- Created with Method Draw - http://github.com/duopixel/Method-Draw/ -->

 <g stroke="null">
  <title stroke="null">background</title>
  <rect stroke="null" fill="#fff" id="canvas_background" height="152" width="152" y="-1" x="-1"/>
  <g style="vector-effect: non-scaling-stroke;" stroke="null" display="none" overflow="visible" y="0" x="0" height="100%" width="100%" id="canvasGrid">
   <rect fill="url(#gridpattern)" stroke-width="0" y="0" x="0" height="100%" width="100%"/>
  </g>
 </g>
 <g stroke="null">
  <title stroke="null">Layer 1</title>
  <style style="vector-effect: non-scaling-stroke;" stroke="null" transform="matrix(3.4103826106841097,0,0,3.4103826106841097,0,0) " type="text/css">.st0{fill:#E6E6E6;}
	.st1{fill:#FFB8B8;}
	.st2{fill:#575A89;}
	.st3{fill:#2F2E41;}</style>
  <g stroke="null" transform="rotate(-138 84.93343353271484,75.7548065185547) " id="svg_29">
   <g stroke="null" transform="matrix(1.7552193096442372,0,0,1.8044895965530738,18.847138201667022,-17.72968499946859) " id="svg_16">
    <g stroke="null" id="svg_17">
     <path stroke="null" d="m91.8084,51.78334c0,10.5 -3,20.8 -8.8,29.6c-1.2,1.9 -2.5,3.6 -4,5.3c-3.4,4 -7.3,7.4 -11.6,10.3c-1.2,0.8 -2.4,1.5 -3.6,2.2c-6.5,3.6 -13.7,5.8 -21,6.5c-1.7,0.2 -3.4,0.2 -5.1,0.2c-4.7,0 -9.4,-0.6 -14,-1.8c-2.6,-0.7 -5.1,-1.6 -7.6,-2.6c-1.3,-0.5 -2.5,-1.1 -3.7,-1.8c-2.9,-1.5 -5.6,-3.3 -8.2,-5.3c-1.2,-0.9 -2.3,-1.9 -3.4,-2.9c-21.9,-20.3 -23.2,-54.6 -2.9,-76.5s54.6,-23.3 76.5,-2.9c11.1,10.2 17.4,24.6 17.4,39.7l0,0z" class="st0" id="svg_27"/>
     <path stroke="null" d="m24.5084,56.68334c0,0 4.9,13.7 1.1,21.4s6,16.4 6,16.4s25.8,-13.1 22.5,-19.7s-8.8,-15.3 -7.7,-20.8l-21.9,2.7z" class="st1" id="svg_26"/>
     <ellipse stroke="null" ry="17.5" rx="17.5" cy="44.38334" cx="34.1084" class="st1" id="svg_25"/>
     <path stroke="null" d="m23.6084,104.08334c-2.6,-0.7 -5.1,-1.6 -7.6,-2.6l0.5,-13.3l4.9,-11c1.1,0.9 2.3,1.6 3.5,2.3c0.3,0.2 0.6,0.3 0.9,0.5c4.6,2.2 12.2,4.2 19.5,-1.3c2.7,-2.1 5,-4.7 6.7,-7.6l13.9,7.8l0.7,8.4l0.8,9.8c-1.2,0.8 -2.4,1.5 -3.6,2.2c-6.5,3.6 -13.7,5.8 -21,6.5c-1.7,0.2 -3.4,0.2 -5.1,0.2c-4.8,0 -9.5,-0.7 -14.1,-1.9z" class="st2" id="svg_24"/>
     <path stroke="null" d="m27.0084,68.98334l0,0l-0.7,7.2l-0.4,3.8l-0.5,5.6l-1.8,18.5c-2.6,-0.7 -5.1,-1.6 -7.6,-2.6c-1.3,-0.5 -2.5,-1.1 -3.7,-1.8c-2.9,-1.5 -5.6,-3.3 -8.2,-5.3l-1.9,-9l0.1,-0.1l24.7,-16.3z" class="st2" id="svg_23"/>
     <path stroke="null" d="m63.8084,99.18334c-6.5,3.6 -13.7,5.8 -21,6.5c0.4,-6.7 1,-13.1 1.6,-18.8c0.3,-2.9 0.7,-5.7 1.1,-8.2c1.2,-8 2.5,-13.5 3.4,-14.2l6.1,4l24.6,8.7l-0.5,9.5c-3.4,4 -7.3,7.4 -11.6,10.3c-1.3,0.8 -2.5,1.6 -3.7,2.2z" class="st2" id="svg_22"/>
     <path stroke="null" d="m4.2084,94.48334c-1.2,-0.9 -2.3,-1.9 -3.4,-2.9l0.9,-6.1l0.7,-0.1l3.1,-0.4l6.8,14.8c-2.8,-1.6 -5.5,-3.3 -8.1,-5.3l0,0z" class="st2" id="svg_21"/>
     <path stroke="null" d="m83.0084,81.38334c-1.2,1.9 -2.5,3.6 -4,5.3c-3.4,4 -7.3,7.4 -11.6,10.3c-1.2,0.8 -2.4,1.5 -3.6,2.2l-0.6,-2.8l3.5,-9.1l4.2,-11.1l8.8,1.1c1.1,1.3 2.2,2.7 3.3,4.1z" class="st2" id="svg_20"/>
     <path stroke="null" d="m50.8084,28.48334c-2.7,-4.3 -6.8,-7.5 -11.6,-8.9l-3.6,2.9l1.4,-3.3c-1.2,-0.2 -2.3,-0.2 -3.5,-0.2l-3.2,4.1l1.3,-4c-5.6,0.7 -10.7,3.7 -14,8.3c-4.1,5.9 -4.8,14.1 -0.8,20c1.1,-3.4 2.4,-6.6 3.5,-9.9c0.9,0.1 1.7,0.1 2.6,0l1.3,-3.1l0.4,3c4.2,-0.4 10.3,-1.2 14.3,-1.9l-0.4,-2.3l2.3,1.9c1.2,-0.3 1.9,-0.5 1.9,-0.7c2.9,4.7 5.8,7.7 8.8,12.5c1.1,-6.8 3,-12.3 -0.7,-18.4z" class="st3" id="svg_19"/>
     <ellipse stroke="null" ry="2.4" rx="1.2" cy="43.78334" cx="49.8084" class="st1" id="svg_18"/>
    </g>
   </g>
  </g>
 </g>
</svg>